<svg width="203" height="47" viewBox="0 0 203 47" fill="none" xmlns="http://www.w3.org/2000/svg">
<path d="M5.28746 14.132L5.28746 45.972H2.24746L2.24746 14.132H5.28746ZM6.59946 3.15604C6.59946 3.54004 6.51413 3.90271 6.34346 4.24405C6.19413 4.56404 5.99146 4.85204 5.73546 5.10804C5.47946 5.36404 5.18079 5.56671 4.83946 5.71605C4.49813 5.86538 4.13546 5.94004 3.75146 5.94004C3.36746 5.94004 3.00479 5.86538 2.66346 5.71605C2.32213 5.56671 2.02346 5.36404 1.76746 5.10804C1.51146 4.85204 1.30879 4.56404 1.15946 4.24405C1.01013 3.90271 0.935461 3.54004 0.935461 3.15604C0.935461 2.77204 1.01013 2.40938 1.15946 2.06804C1.30879 1.70538 1.51146 1.39604 1.76746 1.14005C2.02346 0.884043 2.32213 0.681376 2.66346 0.532043C3.00479 0.382711 3.36746 0.308044 3.75146 0.308044C4.13546 0.308044 4.49813 0.382711 4.83946 0.532043C5.18079 0.681376 5.47946 0.884043 5.73546 1.14005C5.99146 1.39604 6.19413 1.70538 6.34346 2.06804C6.51413 2.40938 6.59946 2.77204 6.59946 3.15604ZM20.3375 19.7C21.8095 17.8654 23.5055 16.3934 25.4255 15.284C27.3668 14.1747 29.5215 13.62 31.8895 13.62C33.6388 13.62 35.1748 13.8974 36.4975 14.452C37.8415 15.0067 38.9508 15.8067 39.8255 16.852C40.7001 17.8974 41.3615 19.156 41.8095 20.628C42.2575 22.1 42.4815 23.764 42.4815 25.62V45.972H39.4095V25.62C39.4095 22.6334 38.7268 20.2974 37.3615 18.612C35.9961 16.9054 33.9161 16.052 31.1215 16.052C29.0521 16.052 27.1108 16.5854 25.2975 17.652C23.5055 18.6974 21.9055 20.1587 20.4975 22.036L20.4975 45.972L17.4255 45.972L17.4255 14.132H19.1215C19.6548 14.132 19.9641 14.3987 20.0495 14.932L20.3375 19.7ZM101.372 30.58C98.3426 30.6867 95.7293 30.932 93.532 31.316C91.356 31.6787 89.5533 32.18 88.124 32.82C86.716 33.46 85.6706 34.228 84.988 35.124C84.3053 35.9987 83.964 37.0014 83.964 38.132C83.964 39.1987 84.1346 40.1267 84.476 40.916C84.8386 41.684 85.308 42.324 85.884 42.836C86.4813 43.3267 87.164 43.6894 87.932 43.924C88.7 44.1587 89.5 44.276 90.332 44.276C91.5693 44.276 92.7 44.148 93.724 43.892C94.7693 43.6147 95.7293 43.2414 96.604 42.772C97.5 42.2814 98.332 41.7054 99.1 41.044C99.868 40.3827 100.625 39.668 101.372 38.9V30.58ZM82.652 18.644C84.316 16.98 86.0653 15.7214 87.9 14.868C89.7346 14.0147 91.8146 13.588 94.14 13.588C95.8466 13.588 97.34 13.8654 98.62 14.42C99.9 14.9534 100.956 15.732 101.788 16.756C102.641 17.7587 103.281 18.9854 103.708 20.436C104.135 21.8654 104.348 23.4654 104.348 25.236L104.348 45.972H103.132C102.492 45.972 102.097 45.6734 101.948 45.076L101.5 40.98C100.625 41.8334 99.7506 42.6014 98.876 43.284C98.0226 43.9667 97.1266 44.5427 96.188 45.012C95.2493 45.4814 94.236 45.844 93.148 46.1C92.06 46.356 90.8653 46.484 89.564 46.484C88.476 46.484 87.42 46.324 86.396 46.004C85.372 45.684 84.4546 45.1934 83.644 44.532C82.8546 43.8707 82.2146 43.028 81.724 42.004C81.2546 40.9587 81.02 39.7107 81.02 38.26C81.02 36.916 81.404 35.668 82.172 34.516C82.94 33.364 84.1453 32.3614 85.788 31.508C87.4306 30.6547 89.532 29.972 92.092 29.46C94.6733 28.948 97.7666 28.6494 101.372 28.564L101.372 25.236C101.372 22.292 100.732 20.0307 99.452 18.452C98.1933 16.852 96.316 16.052 93.82 16.052C92.284 16.052 90.972 16.2654 89.884 16.692C88.8173 17.1187 87.9106 17.588 87.164 18.1C86.4173 18.612 85.8093 19.0814 85.34 19.508C84.8706 19.9347 84.476 20.148 84.156 20.148C83.9213 20.148 83.7293 20.0947 83.58 19.988C83.4306 19.8814 83.3026 19.7427 83.196 19.572L82.652 18.644ZM135.036 39.492V45.972H113.964L113.964 11.004L122.076 11.004L122.076 39.492H135.036ZM158.623 32.604L155.383 23.028C155.143 22.42 154.887 21.708 154.615 20.892C154.343 20.06 154.071 19.164 153.799 18.204C153.559 19.18 153.303 20.084 153.031 20.916C152.759 21.748 152.503 22.468 152.263 23.076L149.047 32.604L158.623 32.604ZM171.511 45.972H165.223C164.519 45.972 163.951 45.812 163.519 45.492C163.087 45.156 162.759 44.732 162.535 44.22L160.471 38.124L147.175 38.124L145.111 44.22C144.935 44.668 144.615 45.076 144.151 45.444C143.703 45.796 143.143 45.972 142.471 45.972H136.135L149.671 11.004H157.975L171.511 45.972ZM189.052 39.852C190.124 39.852 190.996 39.716 191.668 39.444C192.356 39.172 192.892 38.82 193.276 38.388C193.66 37.956 193.924 37.468 194.068 36.924C194.212 36.38 194.284 35.828 194.284 35.268C194.284 34.628 194.196 34.052 194.02 33.54C193.86 33.028 193.572 32.596 193.156 32.244C192.756 31.892 192.22 31.62 191.548 31.428C190.876 31.236 190.028 31.14 189.004 31.14H183.34V39.852H189.052ZM183.34 17.076V25.716H187.564C188.46 25.716 189.268 25.652 189.988 25.524C190.708 25.396 191.316 25.172 191.812 24.852C192.324 24.532 192.708 24.092 192.964 23.532C193.236 22.972 193.372 22.268 193.372 21.42C193.372 20.588 193.268 19.9 193.06 19.356C192.852 18.796 192.532 18.348 192.1 18.012C191.668 17.676 191.116 17.436 190.444 17.292C189.788 17.148 189.004 17.076 188.092 17.076H183.34ZM188.092 11.004C190.508 11.004 192.564 11.228 194.26 11.676C195.956 12.124 197.34 12.756 198.412 13.572C199.484 14.388 200.26 15.38 200.74 16.548C201.236 17.716 201.484 19.02 201.484 20.46C201.484 21.244 201.372 22.004 201.148 22.74C200.924 23.46 200.572 24.14 200.092 24.78C199.612 25.404 198.996 25.98 198.244 26.508C197.492 27.036 196.588 27.492 195.532 27.876C197.836 28.436 199.54 29.34 200.644 30.588C201.748 31.836 202.3 33.452 202.3 35.436C202.3 36.924 202.012 38.308 201.436 39.588C200.86 40.868 200.012 41.988 198.892 42.948C197.788 43.892 196.42 44.636 194.788 45.18C193.156 45.708 191.292 45.972 189.196 45.972H175.228V11.004L188.092 11.004Z" fill="black"/>
<path d="M74.789 14.132V15.412C74.789 15.86 74.6396 16.2654 74.341 16.628L54.405 43.572L73.989 43.572V45.972L50.725 45.972V44.756C50.725 44.3934 50.885 43.9987 51.205 43.572L71.205 16.532L51.781 16.532V14.132L74.789 14.132Z" fill="#FFDE59"/>
</svg>
