<svg width="431" height="105" viewBox="0 0 431 105" fill="none" xmlns="http://www.w3.org/2000/svg">
<path d="M10.44 31.36L10.44 103H3.6L3.6 31.36H10.44ZM13.392 6.664C13.392 7.528 13.2 8.344 12.816 9.112C12.48 9.832 12.024 10.48 11.448 11.056C10.872 11.632 10.2 12.088 9.432 12.424C8.664 12.76 7.848 12.928 6.984 12.928C6.12 12.928 5.304 12.76 4.536 12.424C3.768 12.088 3.096 11.632 2.52 11.056C1.944 10.48 1.488 9.832 1.152 9.112C0.816 8.344 0.648 7.528 0.648 6.664C0.648 5.8 0.816 4.98399 1.152 4.21599C1.488 3.39999 1.944 2.704 2.52 2.128C3.096 1.55199 3.768 1.09599 4.536 0.759995C5.304 0.423996 6.12 0.255997 6.984 0.255997C7.848 0.255997 8.664 0.423996 9.432 0.759995C10.2 1.09599 10.872 1.55199 11.448 2.128C12.024 2.704 12.48 3.39999 12.816 4.21599C13.2 4.98399 13.392 5.8 13.392 6.664ZM44.3025 43.888C47.6145 39.76 51.4305 36.448 55.7505 33.952C60.1185 31.456 64.9665 30.208 70.2945 30.208C74.2305 30.208 77.6865 30.832 80.6625 32.08C83.6865 33.328 86.1825 35.128 88.1505 37.48C90.1185 39.832 91.6065 42.664 92.6145 45.976C93.6225 49.288 94.1265 53.032 94.1265 57.208L94.1265 103H87.2145L87.2145 57.208C87.2145 50.488 85.6785 45.232 82.6065 41.44C79.5345 37.6 74.8545 35.68 68.5665 35.68C63.9105 35.68 59.5425 36.88 55.4625 39.28C51.4305 41.632 47.8305 44.92 44.6625 49.144L44.6625 103H37.7505L37.7505 31.36H41.5665C42.7665 31.36 43.4625 31.96 43.6545 33.16L44.3025 43.888ZM226.63 68.368C219.814 68.608 213.934 69.16 208.99 70.024C204.094 70.84 200.038 71.968 196.822 73.408C193.654 74.848 191.302 76.576 189.766 78.592C188.23 80.56 187.462 82.816 187.462 85.36C187.462 87.76 187.846 89.848 188.614 91.624C189.43 93.352 190.486 94.792 191.782 95.944C193.126 97.048 194.662 97.864 196.39 98.392C198.118 98.92 199.918 99.184 201.79 99.184C204.574 99.184 207.118 98.896 209.422 98.32C211.774 97.696 213.934 96.856 215.902 95.8C217.918 94.696 219.79 93.4 221.518 91.912C223.246 90.424 224.95 88.816 226.63 87.088V68.368ZM184.51 41.512C188.254 37.768 192.19 34.936 196.318 33.016C200.446 31.096 205.126 30.136 210.358 30.136C214.198 30.136 217.558 30.76 220.438 32.008C223.318 33.208 225.694 34.96 227.566 37.264C229.486 39.52 230.926 42.28 231.886 45.544C232.846 48.76 233.326 52.36 233.326 56.344V103H230.59C229.15 103 228.262 102.328 227.926 100.984L226.918 91.768C224.95 93.688 222.982 95.416 221.014 96.952C219.094 98.488 217.078 99.784 214.966 100.84C212.854 101.896 210.574 102.712 208.126 103.288C205.678 103.864 202.99 104.152 200.062 104.152C197.614 104.152 195.238 103.792 192.934 103.072C190.63 102.352 188.566 101.248 186.742 99.76C184.966 98.272 183.526 96.376 182.422 94.072C181.366 91.72 180.838 88.912 180.838 85.648C180.838 82.624 181.702 79.816 183.43 77.224C185.158 74.632 187.87 72.376 191.566 70.456C195.262 68.536 199.99 67 205.75 65.848C211.558 64.696 218.518 64.024 226.63 63.832V56.344C226.63 49.72 225.19 44.632 222.31 41.08C219.478 37.48 215.254 35.68 209.638 35.68C206.182 35.68 203.23 36.16 200.782 37.12C198.382 38.08 196.342 39.136 194.662 40.288C192.982 41.44 191.614 42.496 190.558 43.456C189.502 44.416 188.614 44.896 187.894 44.896C187.366 44.896 186.934 44.776 186.598 44.536C186.262 44.296 185.974 43.984 185.734 43.6L184.51 41.512ZM296.26 90.04V103L254.116 103V33.064H270.34V90.04H296.26ZM343.434 76.264L336.954 57.112C336.474 55.896 335.962 54.472 335.418 52.84C334.874 51.176 334.33 49.384 333.786 47.464C333.306 49.416 332.794 51.224 332.25 52.888C331.706 54.552 331.194 55.992 330.714 57.208L324.282 76.264H343.434ZM369.21 103H356.634C355.226 103 354.09 102.68 353.226 102.04C352.362 101.368 351.706 100.52 351.258 99.496L347.13 87.304H320.538L316.41 99.496C316.058 100.392 315.418 101.208 314.49 101.944C313.594 102.648 312.474 103 311.13 103H298.458L325.53 33.064H342.138L369.21 103ZM404.292 90.76C406.436 90.76 408.18 90.488 409.524 89.944C410.9 89.4 411.972 88.696 412.74 87.832C413.508 86.968 414.036 85.992 414.324 84.904C414.612 83.816 414.756 82.712 414.756 81.592C414.756 80.312 414.58 79.16 414.228 78.136C413.908 77.112 413.332 76.248 412.5 75.544C411.7 74.84 410.628 74.296 409.284 73.912C407.94 73.528 406.244 73.336 404.196 73.336H392.868V90.76H404.292ZM392.868 45.208V62.488H401.316C403.108 62.488 404.724 62.36 406.164 62.104C407.604 61.848 408.82 61.4 409.812 60.76C410.836 60.12 411.604 59.24 412.116 58.12C412.66 57 412.932 55.592 412.932 53.896C412.932 52.232 412.724 50.856 412.308 49.768C411.892 48.648 411.252 47.752 410.388 47.08C409.524 46.408 408.42 45.928 407.076 45.64C405.764 45.352 404.196 45.208 402.372 45.208H392.868ZM402.372 33.064C407.204 33.064 411.316 33.512 414.708 34.408C418.1 35.304 420.868 36.568 423.012 38.2C425.156 39.832 426.708 41.816 427.668 44.152C428.66 46.488 429.156 49.096 429.156 51.976C429.156 53.544 428.932 55.064 428.484 56.536C428.036 57.976 427.332 59.336 426.372 60.616C425.412 61.864 424.18 63.016 422.676 64.072C421.172 65.128 419.364 66.04 417.252 66.808C421.86 67.928 425.268 69.736 427.476 72.232C429.684 74.728 430.788 77.96 430.788 81.928C430.788 84.904 430.212 87.672 429.06 90.232C427.908 92.792 426.212 95.032 423.972 96.952C421.764 98.84 419.028 100.328 415.764 101.416C412.5 102.472 408.772 103 404.58 103H376.644V33.064L402.372 33.064Z" fill="black"/>
<path d="M166.818 31.36V34.24C166.818 35.248 166.482 36.16 165.81 36.976L120.954 97.6H165.018V103H112.674V100.264C112.674 99.448 113.034 98.56 113.754 97.6L158.754 36.76L115.05 36.76V31.36L166.818 31.36Z" fill="#FFDE59"/>
</svg>
